<?xml version="1.0" standalone="no"?><!DOCTYPE svg PUBLIC "-//W3C//DTD SVG 1.1//EN" "http://www.w3.org/Graphics/SVG/1.1/DTD/svg11.dtd"><svg t="1678699874684" class="icon" viewBox="0 0 1024 1024" version="1.1" xmlns="http://www.w3.org/2000/svg" p-id="4848" xmlns:xlink="http://www.w3.org/1999/xlink" width="200" height="200"><path d="M16.354695 364.270181l-0.703951-7.039507V328.368694c2.559821-22.846401 14.015019-27.902047 32.445729-28.797984l7.231494-0.127991h188.786785L15.394762 75.394402A42.685012 42.685012 0 0 1 14.43483 10.630936L15.650744 8.647075h1.727879a42.493025 42.493025 0 0 1 48.636596-1.791875l3.839731 2.559821 236.591439 222.384433V40.132871c0-20.414571 4.799664-31.677783 21.822472-33.917626l7.039507-0.447969h28.733989c20.222584 0 27.326087 9.023368 28.605998 27.134101l0.255982 7.231494v303.082784c0 11.455198-2.815803 22.846401-8.5754 28.605997a44.348896 44.348896 0 0 1-21.822472 13.631046l-6.463548 0.639956H55.327967c-17.662764 0-35.197536-4.735669-39.037267-21.758477z m952.317338 21.886468c17.662764 0 35.197536-4.799664 39.037267-21.886468l0.639956-7.039507V328.368694c-2.559821-22.846401-14.015019-27.902047-32.445729-28.797984l-7.231494-0.127991h-188.786785l228.71999-224.048317a42.685012 42.685012 0 0 0 0.959932-64.763466l-1.215914-1.983861h-1.727879a42.493025 42.493025 0 0 0-48.636596-1.791875l-3.839731 2.559821-236.591439 222.384433V40.132871c0-20.414571-4.799664-31.677783-21.822472-33.917626l-7.039507-0.447969h-28.733989c-20.222584 0-27.326087 9.023368-28.605998 27.134101l-0.255982 7.231494v303.082784c0 11.455198 2.815803 22.846401 8.5754 28.605997 5.759597 6.591539 13.375064 11.327207 21.822472 13.631046l6.463548 0.639956h300.71495zM55.327967 637.915026c-17.662764 0-35.197536 4.799664-39.037267 21.886468l-0.639956 7.039507v28.86198c2.559821 22.846401 14.015019 27.902047 32.445729 28.797984l7.231494 0.127991h188.786785L15.394762 948.677273a42.685012 42.685012 0 0 0-0.959932 64.763466l1.215914 1.983861h1.727879a42.493025 42.493025 0 0 0 48.636596 1.791875l3.839731-2.559821 236.591439-222.384433v191.666583c0 20.414571 4.799664 31.677783 21.822472 33.917626l7.039507 0.447969h28.733989c20.222584 0 27.326087-9.023368 28.605998-27.134101l0.255982-7.231494v-303.082784c0-11.455198-2.815803-22.846401-8.5754-28.605998-6.783525-6.783525-13.631046-11.903167-21.822472-13.631045l-6.463548-0.639956H55.327967z m913.344066 0c17.662764 0 35.197536 4.799664 39.037267 21.886468l0.639956 7.039507v28.86198c-2.559821 22.846401-14.015019 27.902047-32.445729 28.797984l-7.231494 0.127991h-188.786785l228.71999 224.048317a42.685012 42.685012 0 0 1 0.959932 64.763466l-1.215914 1.983861h-1.727879a42.493025 42.493025 0 0 1-48.636596 1.791875l-3.839731-2.559821-236.591439-222.384433v191.666583c0 20.414571-4.799664 31.677783-21.822472 33.917626l-7.039507 0.447969h-28.733989c-20.222584 0-27.326087-9.023368-28.605998-27.134101l-0.255982-7.231494v-303.082784c0-11.455198 2.815803-22.846401 8.5754-28.605998a44.348896 44.348896 0 0 1 21.822472-13.631045l6.463548-0.639956h300.71495z" fill="#303113" p-id="4849"></path></svg>